<svg xmlns="http://www.w3.org/2000/svg" viewBox="0 0 512 512">
  <defs>
    <linearGradient id="cg" x1="0%" y1="0%" x2="100%" y2="100%">
      <stop offset="0%" stop-color="#00d4ff"/>
      <stop offset="100%" stop-color="#0077AA"/>
    </linearGradient>
  </defs>
  <circle cx="256" cy="256" r="230" fill="none" stroke="url(#cg)" stroke-width="20"/>
  <circle cx="256" cy="256" r="40" fill="#e94560"/>
  <polygon points="256,80 220,200 256,180 292,200" fill="#00d4ff"/>
  <polygon points="256,432 220,312 256,332 292,312" fill="#00d4ff"/>
  <polygon points="80,256 200,220 180,256 200,292" fill="#00d4ff"/>
  <polygon points="432,256 312,220 332,256 312,292" fill="#00d4ff"/>
  <polygon points="120,120 180,180 160,160 200,140" fill="#00ff88" opacity="0.4"/>
  <polygon points="392,392 332,332 352,352 312,372" fill="#00ff88" opacity="0.4"/>
  <polygon points="120,392 180,332 160,352 140,312" fill="#00ff88" opacity="0.4"/>
  <polygon points="392,120 332,180 352,160 372,200" fill="#00ff88" opacity="0.4"/>
</svg>
