<svg xmlns="http://www.w3.org/2000/svg" viewBox="0 0 512 512">
  <defs>
    <linearGradient id="gg" x1="0%" y1="0%" x2="100%" y2="100%">
      <stop offset="0%" stop-color="#00ff88"/>
      <stop offset="100%" stop-color="#00cc6a"/>
    </linearGradient>
    <linearGradient id="gg2" x1="0%" y1="0%" x2="100%" y2="100%">
      <stop offset="0%" stop-color="#00d4ff"/>
      <stop offset="100%" stop-color="#0077AA"/>
    </linearGradient>
  </defs>
  <rect x="60" y="380" width="80" height="80" rx="8" fill="url(#gg)"/>
  <rect x="160" y="280" width="80" height="180" rx="8" fill="url(#gg2)"/>
  <rect x="260" y="320" width="80" height="140" rx="8" fill="url(#gg)"/>
  <rect x="360" y="200" width="80" height="260" rx="8" fill="url(#gg2)"/>
  <polyline points="100,380 200,280 300,320 400,200" fill="none" stroke="#e94560" stroke-width="6" stroke-linecap="round" stroke-linejoin="round"/>
  <circle cx="100" cy="380" r="8" fill="#e94560"/>
  <circle cx="200" cy="280" r="8" fill="#e94560"/>
  <circle cx="300" cy="320" r="8" fill="#e94560"/>
  <circle cx="400" cy="200" r="8" fill="#e94560"/>
  <line x1="40" y1="440" x2="470" y2="440" stroke="#ffffff" stroke-width="4" opacity="0.3"/>
  <line x1="40" y1="300" x2="470" y2="300" stroke="#ffffff" stroke-width="2" opacity="0.15"/>
  <line x1="40" y1="200" x2="470" y2="200" stroke="#ffffff" stroke-width="2" opacity="0.15"/>
</svg>
